1.9Hzlow3min_grf.mot
version=1
nRows=25
nColumns 19
inDegrees=yes
endheader
time	1_ground_force_vx	1_ground_force_vy	1_ground_force_vz	1_ground_force_px	1_ground_force_py	1_ground_force_pz	1_ground_torque_x	1_ground_torque_y	1_ground_torque_z	2_ground_force_vx	2_ground_force_vy	2_ground_force_vz	2_ground_force_px	2_ground_force_py	2_ground_force_pz	2_ground_torque_x	2_ground_torque_y	2_ground_torque_z
            0.005000	          -38.010254	         1217.104213	         -110.934949	           -0.224907	            0.006157	           -0.389550	           -0.199519	            6.388667	           -0.582305	           26.668186	         1424.494857	          110.329900	           -0.265717	            0.005409	           -0.665364	           -0.049775	           -2.658783	           -0.205928
            0.005500	          -37.550697	         1216.561765	         -110.525706	           -0.224877	            0.006156	           -0.389371	           -0.189599	            6.142588	           -0.558059	           27.430793	         1420.816848	          109.659446	           -0.265559	            0.005410	           -0.665389	           -0.048810	           -2.528203	           -0.195128
            0.006000	          -37.090786	         1214.036426	         -110.124951	           -0.224816	            0.006156	           -0.389443	           -0.180320	            5.902148	           -0.535382	           28.286365	         1417.324004	          108.848818	           -0.265547	            0.005409	           -0.665254	           -0.051126	           -2.561721	           -0.196737
            0.006500	          -36.081272	         1211.872327	         -109.907454	           -0.224875	            0.006157	           -0.389546	           -0.175506	            5.894774	           -0.534610	           28.531147	         1414.379436	          108.603573	           -0.265551	            0.005409	           -0.665262	           -0.051362	           -2.546199	           -0.195511
            0.007000	          -35.027485	         1210.792374	         -110.235704	           -0.224748	            0.006156	           -0.389442	           -0.171562	            5.930368	           -0.539926	           28.354176	         1411.433938	          108.123858	           -0.265497	            0.005409	           -0.665217	           -0.052400	           -2.608399	           -0.199818
            0.007500	          -33.880735	         1207.727730	         -110.205837	           -0.224719	            0.006157	           -0.389579	           -0.170737	            6.086163	           -0.555366	           28.084872	         1408.119607	          107.736726	           -0.265457	            0.005410	           -0.665234	           -0.051491	           -2.581664	           -0.197526
            0.008000	          -32.964296	         1206.286962	         -110.489424	           -0.224778	            0.006156	           -0.389420	           -0.168183	            6.154430	           -0.563713	           27.861824	         1404.989023	          107.491007	           -0.265307	            0.005410	           -0.665245	           -0.049573	           -2.499817	           -0.191253
            0.008500	          -32.138745	         1204.844799	         -110.451804	           -0.224764	            0.006156	           -0.389402	           -0.160695	            6.024278	           -0.552264	           28.248237	         1401.678567	          106.681251	           -0.265283	            0.005410	           -0.665234	           -0.048412	           -2.402193	           -0.182830
            0.009000	          -31.404050	         1203.221068	         -110.093733	           -0.224746	            0.006156	           -0.389406	           -0.151142	            5.790882	           -0.529861	           29.010777	         1398.001305	          105.870006	           -0.265276	            0.005410	           -0.665101	           -0.050235	           -2.420768	           -0.183324
            0.009500	          -30.989557	         1200.875108	         -109.508683	           -0.224797	            0.006156	           -0.389406	           -0.143516	            5.561394	           -0.507148	           29.541082	         1393.770303	          105.103824	           -0.265214	            0.005410	           -0.665048	           -0.051330	           -2.421803	           -0.182627
            0.010000	          -30.255025	         1198.891178	         -109.243862	           -0.224743	            0.006156	           -0.389428	           -0.139689	            5.535345	           -0.504385	           30.024554	         1389.539208	          104.384599	           -0.265159	            0.005410	           -0.664942	           -0.055130	           -2.551414	           -0.191667
            0.010500	          -29.063102	         1196.368536	         -109.441065	           -0.224607	            0.006156	           -0.389418	           -0.137948	            5.678573	           -0.519463	           29.707536	         1386.410461	          103.528863	           -0.264976	            0.005410	           -0.664886	           -0.054772	           -2.556119	           -0.190876
            0.011000	          -27.686911	         1193.303543	         -109.320048	           -0.224588	            0.006157	           -0.389567	           -0.134426	            5.793731	           -0.530771	           29.531852	         1383.097139	          102.953978	           -0.264904	            0.005410	           -0.664944	           -0.054931	           -2.572649	           -0.191501
            0.011500	          -26.724498	         1192.403401	         -109.509725	           -0.224607	            0.006156	           -0.389435	           -0.130357	            5.816324	           -0.534168	           29.221021	         1378.309269	          102.561608	           -0.264822	            0.005410	           -0.664722	           -0.050695	           -2.391188	           -0.177931
            0.012000	          -25.760944	         1188.977932	         -109.435097	           -0.224558	            0.006156	           -0.389434	           -0.122909	            5.672769	           -0.522129	           29.232052	         1375.181114	          101.940366	           -0.264816	            0.005411	           -0.664898	           -0.050267	           -2.364731	           -0.175294
            0.012500	          -25.255526	         1186.453192	         -109.172027	           -0.224497	            0.006157	           -0.389482	           -0.114595	            5.383453	           -0.495361	           29.811887	         1370.213551	          101.218472	           -0.264716	            0.005410	           -0.664752	           -0.050859	           -2.337582	           -0.172679
            0.013000	          -24.427971	         1183.385780	         -108.453520	           -0.224486	            0.006157	           -0.389513	           -0.109120	            5.286186	           -0.484462	           30.388981	         1365.983464	          100.311480	           -0.264622	            0.005410	           -0.664629	           -0.052949	           -2.380057	           -0.174780
            0.013500	          -23.875770	         1181.940616	         -107.727375	           -0.224463	            0.006157	           -0.389473	           -0.105388	            5.217096	           -0.475510	           30.773216	         1363.226753	           99.081333	           -0.264475	            0.005412	           -0.664826	           -0.056355	           -2.496478	           -0.181448
            0.014000	          -23.232888	         1178.514936	         -107.560230	           -0.224426	            0.006157	           -0.389505	           -0.103574	            5.253925	           -0.479513	           31.025808	         1358.073835	           98.452779	           -0.264369	            0.005412	           -0.664714	           -0.059944	           -2.623902	           -0.190218
            0.014500	          -21.811461	         1176.892667	         -107.570715	           -0.224427	            0.006156	           -0.389433	           -0.100772	            5.437406	           -0.496992	           30.809920	         1352.918814	           97.871343	           -0.264352	            0.005411	           -0.664473	           -0.060320	           -2.648778	           -0.191615
            0.015000	          -20.802551	         1173.648656	         -107.678850	           -0.224333	            0.006157	           -0.389548	           -0.096077	            5.420547	           -0.497319	           30.309448	         1348.684760	           96.917888	           -0.264184	            0.005412	           -0.664578	           -0.054974	           -2.446202	           -0.175787
            0.015500	          -19.838766	         1170.222794	         -107.512502	           -0.224315	            0.006157	           -0.389496	           -0.089398	            5.273294	           -0.484476	           30.041267	         1345.003943	           96.060161	           -0.264084	            0.005412	           -0.664615	           -0.051052	           -2.285711	           -0.163245
            0.016000	          -19.286823	         1167.696883	         -106.974418	           -0.224184	            0.006157	           -0.389488	           -0.083122	            5.032521	           -0.461037	           30.152607	         1340.034688	           95.338451	           -0.264040	            0.005412	           -0.664560	           -0.048896	           -2.173044	           -0.154604
            0.016500	          -18.642916	         1164.269433	         -106.394574	           -0.224305	            0.006157	           -0.389552	           -0.078845	            4.923937	           -0.449965	           31.012003	         1335.438217	           94.148471	           -0.263932	            0.005412	           -0.664432	           -0.053669	           -2.311090	           -0.162932
            0.017000	          -18.365621	         1160.120729	         -105.816897	           -0.224095	            0.006158	           -0.389671	           -0.079097	            4.996428	           -0.455734	           31.408446	         1329.365087	           93.469635	           -0.263800	            0.005412	           -0.664312	           -0.058116	           -2.459757	           -0.172949
